# Blender v2.92.0 OBJ File: ''
# www.blender.org
mtllib rock1.mtl
o rock.003_Cube.003
v 0.582034 0.378756 0.856973
v 0.600086 -0.663566 0.679930
v 0.601776 0.421640 2.220071
v 0.778036 -0.661221 2.072701
v -0.601279 0.454073 0.891843
v -0.764101 -0.652114 0.742999
v -0.856726 0.538411 2.256417
v -0.855406 -0.642855 2.203001
v -1.001247 -0.694842 1.474187
v 0.647927 0.490011 1.532873
v -0.860479 0.590113 1.573751
v 0.746572 -0.676498 1.349937
v -0.057736 -0.671429 0.623578
v -0.119392 0.574785 2.372828
v 0.000077 -0.654728 2.245132
v -0.105442 -0.710852 1.407104
v -0.080637 0.750340 1.610110
v -0.944694 -0.067939 2.334778
v 0.821405 -0.143886 2.234137
v -0.761083 -0.114940 0.729916
v 0.937498 -0.133922 1.418527
v -1.175289 -0.084837 1.532382
vt 0.500000 0.125000
vt 0.625000 0.125000
vt 0.625000 0.250000
vt 0.500000 0.250000
vt 0.250000 0.625000
vt 0.375000 0.625000
vt 0.375000 0.750000
vt 0.250000 0.750000
vt 0.250000 0.500000
vt 0.375000 0.500000
vt 0.125000 0.500000
vt 0.125000 0.625000
vt 0.125000 0.750000
vt 0.625000 0.625000
vt 0.750000 0.625000
vt 0.750000 0.750000
vt 0.625000 0.750000
vt 0.500000 0.750000
vt 0.375000 1.000000
vt 0.500000 0.000000
vt 0.000000 0.000000
vt 0.500000 0.625000
vt 0.875000 0.750000
vt 0.000000 0.000000
vt 0.625000 0.500000
vt 0.000000 0.000000
vn -0.8245 0.3827 -0.4169
vn 0.0232 -0.9988 0.0437
vn 0.0279 -0.9989 -0.0379
vn -0.0289 -0.9978 -0.0596
vn -0.0149 -0.9974 0.0712
vn 0.2956 0.9391 0.1753
vn -0.0815 -0.2907 0.9533
vn -0.9383 -0.2473 0.2418
vn -0.8780 -0.0949 0.4691
vn 0.2288 0.1129 0.9669
vn -0.9133 -0.1209 -0.3889
vn -0.8842 0.3973 0.2457
vn -0.9892 0.1456 0.0165
vn -0.1614 0.1495 0.9755
vn 0.0322 -0.1002 0.9945
vn -0.0511 -0.2307 0.9717
vn -0.0826 0.9721 0.2195
vn -0.1828 0.9485 -0.2587
vn -0.2040 0.9761 0.0750
vn 0.2399 0.8238 -0.5137
vn 0.0577 0.9842 -0.1676
vn 0.0821 0.1683 -0.9823
vn 0.9304 -0.3009 -0.2092
vn -0.1673 -0.0231 -0.9856
vn -0.0107 0.2765 -0.9610
vn 0.0163 0.2075 -0.9781
vn 0.8842 0.4394 -0.1585
vn 0.8968 0.3413 -0.2815
vn 0.9094 0.4035 0.1012
vn 0.7615 -0.3379 0.5531
vn 0.9966 -0.0705 -0.0419
vn 0.2151 -0.0802 0.9733
usemtl Material
s off
f 22/1/1 11/2/1 5/3/1 20/4/1
f 16/5/2 12/6/2 4/7/2 15/8/2
f 13/9/3 2/10/3 12/6/3 16/5/3
f 6/11/4 13/9/4 16/5/4 9/12/4
f 9/12/5 16/5/5 15/8/5 8/13/5
f 10/14/6 17/15/6 14/16/6 3/17/6
f 19/18/7 14/16/7 4/7/7
f 9/12/8 8/19/8 18/20/8 22/1/8
f 1/21/9 2/10/9 21/22/9
f 14/16/10 19/18/10 3/17/10
f 20/4/11 6/11/11 9/12/11 22/1/11
f 22/1/12 18/20/12 11/2/12
f 18/20/13 7/23/13 11/2/13
f 7/23/14 18/20/14 14/16/14
f 14/16/15 18/20/15 15/8/15
f 15/8/16 18/20/16 8/19/16
f 14/16/17 17/15/17 7/23/17
f 11/2/18 17/24/18 5/3/18
f 11/2/19 7/23/19 17/24/19
f 10/14/20 5/3/20 17/24/20
f 10/14/21 1/25/21 5/3/21
f 13/9/22 1/21/22 2/10/22
f 12/6/23 2/10/23 21/22/23
f 6/11/24 20/4/24 13/9/24
f 5/3/25 1/25/25 20/4/25
f 1/25/26 13/9/26 20/4/26
f 10/14/27 21/22/27 1/25/27
f 12/26/28 3/17/28 19/18/28
f 3/17/29 21/22/29 10/14/29
f 21/22/30 3/17/30 12/26/30
f 19/18/31 4/7/31 12/26/31
f 15/8/32 4/7/32 14/16/32
